<svg width="125" height="140" viewBox="0 0 125 140" fill="none" xmlns="http://www.w3.org/2000/svg">
<path d="M85.5731 77.7805H77.7805V69.9976H85.5585L85.5634 62.2195H108.888L108.898 54.4415H116.676V46.6634H124.454V31.1122H116.676L116.661 23.3293H85.5731L85.5536 31.1122H70.0073V38.8854H62.2244L62.2292 54.4366H54.4463V62.2195H38.8951L38.8902 54.4415H46.6731L46.6683 38.8902H54.4512V31.1122L62.2341 31.1025V7.78779L54.456 7.77805L54.4463 0H31.1268L31.117 7.77805H23.339V15.5464L15.5561 15.5756V69.9732L7.77802 70.0073V85.5439L-2.28882e-05 85.5683V124.424L7.77802 124.444V132.222L23.3292 132.217L23.339 140H38.8902V108.893H46.6731V139.995H77.7853V108.898L85.5682 108.888V132.212L93.3463 132.222V124.444L101.124 124.429V93.3414L93.3463 93.3268V85.5488L85.5634 85.5585L85.5829 77.7805H85.5731ZM62.2195 116.661L62.2292 108.883H70.0073V116.671L62.2146 116.661H62.2195Z" fill="#282C2F"/>
</svg>
