<svg width="10" height="10" viewBox="0 0 10 10" fill="none" xmlns="http://www.w3.org/2000/svg">
<path d="M4.63391 3.38379L7.75891 0.258789C8.10409 -0.0863889 8.66373 -0.0863887 9.00891 0.258789C9.35409 0.603967 9.35409 1.16361 9.00891 1.50879L5.88391 4.63379L9.00891 7.75879C9.35409 8.10397 9.35409 8.66361 9.00891 9.00879C8.66373 9.35397 8.10409 9.35397 7.75891 9.00879L4.63391 5.88379L1.50891 9.00879C1.16373 9.35397 0.604089 9.35397 0.258911 9.00879C-0.0862667 8.66361 -0.086267 8.10397 0.258911 7.75879L3.38391 4.63379L0.258911 1.50879C-0.0862669 1.16361 -0.0862667 0.603967 0.258911 0.258789C0.604089 -0.0863888 1.16373 -0.0863891 1.50891 0.258789L4.63391 3.38379Z" fill="#9499A0"/>
</svg>
