<svg width="10" height="10" viewBox="0 0 10 10" fill="none" xmlns="http://www.w3.org/2000/svg">
<path d="M4.63379 3.38379L7.75879 0.258789C8.10397 -0.0863889 8.66361 -0.0863887 9.00879 0.258789C9.35397 0.603967 9.35397 1.16361 9.00879 1.50879L5.88379 4.63379L9.00879 7.75879C9.35397 8.10397 9.35397 8.66361 9.00879 9.00879C8.66361 9.35397 8.10397 9.35397 7.75879 9.00879L4.63379 5.88379L1.50879 9.00879C1.16361 9.35397 0.603967 9.35397 0.258789 9.00879C-0.0863887 8.66361 -0.0863891 8.10397 0.258789 7.75879L3.38379 4.63379L0.258789 1.50879C-0.0863889 1.16361 -0.0863888 0.603967 0.258789 0.258789C0.603967 -0.0863888 1.16361 -0.0863891 1.50879 0.258789L4.63379 3.38379Z" fill="#505357"/>
</svg>
