<svg width="512" height="512" viewBox="0 0 512 512" fill="none" xmlns="http://www.w3.org/2000/svg">
<rect width="512" height="512" fill="black"/>
<g clip-path="url(#clip0_2451_11588)">
<path d="M296.948 335.146L296.916 351.271L280.825 351.292L279.494 351.294V371.402H299.578L299.581 370.071L299.612 353.948H334.457V333.816H296.95L296.948 335.146ZM227.196 353.938L228.53 353.937L263.372 353.915V352.592H264.705V333.804H227.196V353.938ZM160.099 246.551L158.774 246.544L142.666 246.452V144.433L158.773 144.352L160.099 144.345V109.484L176.19 109.455L177.518 109.452L177.521 108.125L177.562 91.9997H227.155L227.196 108.114L227.199 109.44L228.526 109.443L244.618 109.483V159.154L228.526 159.195L227.198 159.198L227.196 160.526L227.174 176.621L211.081 176.672L209.752 176.675V249.12L211.082 249.123L228.503 249.167L229.838 249.17L229.84 247.835L229.861 231.707L245.954 231.657L247.284 231.653V161.878L263.388 161.818L264.716 161.813V126.939L280.818 126.909L282.147 126.906L282.149 125.577L282.168 109.474L298.249 109.455L299.578 109.453L299.581 108.125L299.622 91.9997H349.215L349.256 108.125L349.259 109.455H366.666V159.184H349.246L349.245 160.515L349.224 176.63L333.132 176.66L331.802 176.663V211.549L315.7 211.58L314.37 211.583L314.37 212.912L314.348 229.014L298.256 229.046L296.925 229.048V266.596L298.256 266.599L314.348 266.629L314.37 282.733L314.37 284.063L315.701 284.064L331.781 284.085L331.802 300.198L331.803 301.528L333.133 301.53L349.213 301.549L349.234 317.664L349.236 318.995H366.656V386.19H349.236L349.234 387.522L349.213 403.645L333.122 403.667L331.79 403.668V421.121H194.973L194.953 404.998L194.952 403.667H160.119L160.088 387.553L160.085 386.228L158.76 386.223L142.666 386.162V301.599L158.773 301.519L160.099 301.512V246.551Z" fill="url(#paint0_linear_2451_11588)" stroke="url(#paint1_linear_2451_11588)" stroke-width="2.66667"/>
</g>
<defs>
<linearGradient id="paint0_linear_2451_11588" x1="254.672" y1="90.6667" x2="254.672" y2="422.454" gradientUnits="userSpaceOnUse">
<stop stop-color="#32DE56"/>
<stop offset="1" stop-color="#5BE478"/>
</linearGradient>
<linearGradient id="paint1_linear_2451_11588" x1="254.672" y1="90.6667" x2="254.672" y2="422.454" gradientUnits="userSpaceOnUse">
<stop stop-color="#84EB99"/>
<stop offset="1" stop-color="#84EB99" stop-opacity="0.5"/>
</linearGradient>
<clipPath id="clip0_2451_11588">
<rect width="226.667" height="331.787" fill="white" transform="translate(141.333 90.6667)"/>
</clipPath>
</defs>
</svg>
