<svg width="16" height="16" viewBox="0 0 16 16" fill="none" xmlns="http://www.w3.org/2000/svg">
<g clip-path="url(#clip0_2451_11350)">
<path d="M14.286 8C14.286 4.52843 11.4716 1.714 8 1.714C4.52843 1.714 1.714 4.52843 1.714 8C1.714 11.4716 4.52843 14.286 8 14.286C11.4716 14.286 14.286 11.4716 14.286 8ZM7.143 3.714C7.14311 3.2407 7.52667 2.857 8 2.857C8.47333 2.857 8.85689 3.2407 8.857 3.714V7.46986L11.2407 8.66168C11.6639 8.87333 11.8357 9.38832 11.6243 9.81166C11.4127 10.2349 10.8977 10.4067 10.4743 10.1953L7.61634 8.76632C7.32618 8.62105 7.143 8.32452 7.143 8V3.714ZM16 8C16 12.4184 12.4184 16 8 16C3.58163 16 0 12.4184 0 8C0 3.58163 3.58163 0 8 0C12.4184 0 16 3.58163 16 8Z" fill="#505357"/>
</g>
<defs>
<clipPath id="clip0_2451_11350">
<rect width="16" height="16" fill="white"/>
</clipPath>
</defs>
</svg>
