<svg width="36" height="36" viewBox="0 0 36 36" fill="none" xmlns="http://www.w3.org/2000/svg">
<rect width="36" height="36" rx="18" fill="#C5C9CD"/>
<path fill-rule="evenodd" clip-rule="evenodd" d="M17.2086 9.51656C21.4543 9.51656 24.9005 12.9629 24.9007 17.2086C24.9007 18.962 24.3109 20.5783 23.3219 21.8725L26.1832 24.733C26.5835 25.1333 26.5835 25.7829 26.1832 26.1832C25.7829 26.5835 25.1333 26.5835 24.733 26.1832L21.8725 23.3219C20.5783 24.3109 18.962 24.9007 17.2086 24.9007C12.9629 24.9005 9.51656 21.4543 9.51656 17.2086C9.51677 12.9631 12.9631 9.51676 17.2086 9.51656ZM21.0888 23.6263C21.1033 23.6175 21.1184 23.6099 21.1328 23.601C21.2208 23.5469 21.3076 23.491 21.3932 23.4334C21.2938 23.5003 21.1915 23.564 21.0888 23.6263ZM17.2086 11.5673C14.0919 11.5675 11.5676 14.0919 11.5673 17.2086C11.5673 20.3255 14.0917 22.8497 17.2086 22.8499C18.7365 22.8499 20.1218 22.2438 21.1377 21.2581L21.2605 21.1352C22.2449 20.1196 22.8499 18.7354 22.8499 17.2086C22.8497 14.0917 20.3256 11.5673 17.2086 11.5673Z" fill="#0C0D0E"/>
</svg>
