<svg width="90" height="24" viewBox="0 0 90 24" fill="none" xmlns="http://www.w3.org/2000/svg">
<path d="M0 24V0H10.6918V10.0475H13.058V24H0ZM7.23013 3.37843H3.4617V10.0475H7.23013V3.37843ZM9.59635 13.426H3.4617V20.5777H9.59635V13.426Z" fill="#32DE56"/>
<path d="M16.7693 24V3.02742H20.231V24H16.7693Z" fill="#32DE56"/>
<path d="M24.4034 24V11.1444H32.5975V6.40585H26.0685V3.02742H36.0154V24H24.4034ZM32.5975 14.4351H27.8213V20.7093H32.5975V14.4351Z" fill="#32DE56"/>
<path d="M47.7253 24V14.4351H42.9491V24H39.5312V11.1444H51.1432V24H47.7253Z" fill="#32DE56"/>
<path d="M58.0871 3.02742V15.0932L62.5567 11.1444H67.6835L60.7163 17.2431L68.5599 24H63.4331L58.0871 19.3931V24H54.6693V3.02742H58.0871Z" fill="#32DE56"/>
<path d="M70.7539 24V11.1444H74.2156V24H70.7539ZM70.7539 8.73126V3.02742H74.2156V8.73126H70.7539Z" fill="#32DE56"/>
<path d="M78.388 24V3.02742H81.8059V11.1444H89.1674V14.5229H81.8059V20.6216H90V24H78.388Z" fill="#32DE56"/>
</svg>
