<svg width="40" height="40" viewBox="0 0 40 40" fill="none" xmlns="http://www.w3.org/2000/svg">
<rect width="40" height="40" rx="20" fill="#FF8100" fill-opacity="0.2"/>
<path d="M21.6689 23.3326L20 23.3337L20.001 25.0005L18.3332 24.9995L18.3342 26.6674L16.6663 26.6663L16.6674 28.3332H15.0005L14.9984 30H10V25.0016L11.6668 24.9995V23.3326L13.3337 23.3337L13.3326 21.6658L15.0005 21.6668L14.9995 20L16.6674 20.001L16.6663 18.3332L18.3342 18.3342L18.3332 16.6663L20.001 16.6674L19.999 14.9995L21.6668 15.0005L21.6658 13.3337L23.3337 13.3347L23.3326 11.6668L25.0005 11.6679V10H28.3321L28.3332 11.6658L30 11.67V19.9969L28.3332 20.001V21.6668L26.6663 21.6658L26.6674 23.3337L24.9995 23.3326V25.0005H21.6668L21.6658 23.3326L23.3337 23.3337L23.3326 21.6658L25.0005 21.6668L24.9995 20L26.6674 20.001L26.6663 18.3332L28.3332 18.3342V16.6663H26.6663L26.6674 18.3342L24.9995 18.3332L25.0005 20.001L23.3326 20L23.3337 21.6679L21.6658 21.6658L21.6689 23.3326Z" fill="#FF8100"/>
</svg>
