<svg width="24" height="24" viewBox="0 0 24 24" fill="none" xmlns="http://www.w3.org/2000/svg">
<path d="M12 10.5L15.75 6.75C16.1642 6.33579 16.8358 6.33579 17.25 6.75C17.6642 7.16421 17.6642 7.83579 17.25 8.25L13.5 12L17.25 15.75C17.6642 16.1642 17.6642 16.8358 17.25 17.25C16.8358 17.6642 16.1642 17.6642 15.75 17.25L12 13.5L8.25 17.25C7.83579 17.6642 7.16421 17.6642 6.75 17.25C6.33579 16.8358 6.33579 16.1642 6.75 15.75L10.5 12L6.75 8.25C6.33579 7.83579 6.33579 7.16421 6.75 6.75C7.16421 6.33579 7.83579 6.33579 8.25 6.75L12 10.5Z" fill="#505357"/>
</svg>
