<svg width="48" height="48" viewBox="0 0 48 48" fill="none" xmlns="http://www.w3.org/2000/svg">
<circle cx="24" cy="24" r="24" fill="#0C0D0E"/>
<path d="M36.9987 7.89505V13.579H35.0005L34.998 15.4717L32.9997 15.4752V19.2606L31.0002 19.2642L30.9977 21.1556L28.9994 21.1592V24.9446L30.9977 24.9481L31.0002 26.8396L32.9972 26.842L32.9997 28.7347L34.9967 28.737L34.9992 30.6297H36.9975V38.2099H34.9992L34.9967 40.1038L32.9985 40.1061V42H16.9998L16.9973 40.1061H13.002L12.9983 38.2135L11 38.2063V28.743L12.9995 28.7335V23.0578L11 23.0471V11.6899L12.9995 11.6804V7.89743L14.9978 7.89386L15.0028 6H20.9963L21.0014 7.89267L22.9996 7.89743V13.5754L21.0014 13.5802L20.9988 15.4705L19.0006 15.4764V23.0483L20.9988 23.0531L21.0014 21.1592L22.9996 21.1533V13.5826L24.9991 13.5754V9.79129L26.9986 9.78772L27.0012 7.89624L28.9982 7.89386L29.0032 6H34.9967L35.0017 7.89386H37L36.9987 7.89505ZM24.9979 34.4198V32.5259H21.0014V34.421L24.9979 34.4186V34.4198ZM28.9982 36.316L29.0019 34.4222H32.9985V32.5271H29.0019L28.9982 34.421L26.9999 34.4234V36.316H28.9982Z" fill="#1A1C1F"/>
</svg>
