<svg width="24" height="24" viewBox="0 0 24 24" fill="none" xmlns="http://www.w3.org/2000/svg">
<path d="M9.79107 2.88415C9.92397 2.48894 10.2243 2.1499 10.6374 2.09279C11.5345 1.96875 12.4513 1.96565 13.3618 2.09043C13.7752 2.14708 14.0758 2.48655 14.2086 2.88213C14.508 3.77396 15.1214 4.5644 16.0002 5.07176C16.8789 5.5791 17.8701 5.71512 18.7921 5.52851C19.2012 5.44573 19.6455 5.5363 19.9013 5.86601C20.4646 6.59217 20.9203 7.38765 21.2614 8.2266C21.4185 8.61284 21.275 9.04248 20.9992 9.35518C20.3774 10.0602 20.0002 10.986 20.0002 11.9999C20.0002 13.0141 20.3776 13.9401 20.9996 14.6452C21.2759 14.9584 21.4195 15.3889 21.2613 15.7755C21.0912 16.1912 20.8912 16.6002 20.6604 16.9999C20.4296 17.3997 20.1754 17.7775 19.9004 18.1326C19.6447 18.4628 19.2001 18.5538 18.7907 18.4711C17.8691 18.2849 16.8785 18.4211 16.0002 18.9281C15.122 19.4351 14.5089 20.2248 14.2092 21.1159C14.0763 21.511 13.776 21.8501 13.3629 21.9071C12.4659 22.0312 11.5491 22.0342 10.6386 21.9095C10.2251 21.8528 9.92454 21.5133 9.79172 21.1177C9.49232 20.2259 8.8789 19.4355 8.00016 18.9281C7.12142 18.4208 6.1302 18.2848 5.20818 18.4714C4.79916 18.5542 4.35482 18.4636 4.09902 18.1339C3.53571 17.4077 3.08003 16.6122 2.7389 15.7733C2.58184 15.3871 2.7253 14.9574 3.00111 14.6447C3.62291 13.9397 4.00017 13.0139 4.00017 11.9999C4.00017 10.9858 3.62273 10.0598 3.00068 9.35473C2.72436 9.04154 2.58083 8.61098 2.73899 8.22443C2.90905 7.80878 3.10911 7.39972 3.33991 6.99996C3.57071 6.60021 3.82494 6.22241 4.09986 5.86732C4.35555 5.53707 4.8002 5.44609 5.20959 5.5288C6.13121 5.71498 7.12187 5.57884 8.00016 5.07176C8.87826 4.56478 9.49142 3.77515 9.79107 2.88415ZM12.0002 14.9999C13.657 14.9999 15.0002 13.6568 15.0002 11.9999C15.0002 10.3431 13.657 8.99996 12.0002 8.99996C10.3433 8.99996 9.00016 10.3431 9.00016 11.9999C9.00016 13.6568 10.3433 14.9999 12.0002 14.9999Z" fill="#9499A0"/>
</svg>
