<svg width="20" height="20" viewBox="6 6 20 20" fill="none" xmlns="http://www.w3.org/2000/svg">
<path d="M17.6689 19.3326L16 19.3337L16.001 21.0005L14.3332 20.9995L14.3342 22.6674L12.6663 22.6663L12.6674 24.3332H11.0005L10.9984 26H6V21.0016L7.66684 20.9995V19.3326L9.33368 19.3337L9.33264 17.6658L11.0005 17.6668L10.9995 16L12.6674 16.001L12.6663 14.3332L14.3342 14.3342L14.3332 12.6663L16.001 12.6674L15.999 10.9995L17.6668 11.0005L17.6658 9.33368L19.3337 9.33473L19.3326 7.66684L21.0005 7.66789V6H24.3321L24.3332 7.6658L26 7.66998V15.9969L24.3332 16.001V17.6668L22.6663 17.6658L22.6674 19.3337L20.9995 19.3326V21.0005H17.6668L17.6658 19.3326L19.3337 19.3337L19.3326 17.6658L21.0005 17.6668L20.9995 16L22.6674 16.001L22.6663 14.3332L24.3332 14.3342V12.6663H22.6663L22.6674 14.3342L20.9995 14.3332L21.0005 16.001L19.3326 16L19.3337 17.6679L17.6658 17.6658L17.6689 19.3326Z" fill="#72767C"/>
</svg>
