<svg width="20" height="19" viewBox="0 0 20 19" fill="none" xmlns="http://www.w3.org/2000/svg">
<path d="M10 0C15.523 0 20 3.53174 20 7.88574C19.9998 12.2396 15.5229 15.7695 10 15.7695C9.40649 15.77 8.81326 15.7285 8.22559 15.6455C7.64777 16.0531 4.31495 18.3945 4 18.4375C3.96132 18.4518 3.92008 18.4584 3.87891 18.4561C3.8376 18.4536 3.79664 18.4426 3.75977 18.4238C3.64979 18.3588 3.66992 18.1895 3.66992 18.1895C3.70298 17.9653 4.53347 15.0936 4.68652 14.5654C1.87183 13.1704 0.000112879 10.7005 0 7.88574C0 3.53074 4.477 0 10 0Z" fill="#381E1F"/>
</svg>
